<?xml version="1.0" encoding="utf-8"?>
<svg version="1.1" id="Layer_1" xmlns="http://www.w3.org/2000/svg" xmlns:xlink="http://www.w3.org/1999/xlink" x="0px" y="0px"
	 viewBox="0 0 242 235" style="enable-background:new 0 0 242 235;" xml:space="preserve">
<style type="text/css">
	.st0{fill:url(#SVGID_1_);}
</style>
<linearGradient id="SVGID_1_" gradientUnits="userSpaceOnUse" x1="0" y1="-99.5" x2="242" y2="-99.5" gradientTransform="matrix(1 0 0 -1 0 18)">
	<stop  offset="0" style="stop-color:#F6EBAF"/>
	<stop  offset="0.25" style="stop-color:#EC7831"/>
	<stop  offset="0.5" style="stop-color:#B5272E"/>
	<stop  offset="0.75" style="stop-color:#73211F"/>
	<stop  offset="1" style="stop-color:#230000"/>
</linearGradient>
<path class="st0" d="M138.3,221.5c-0.8-0.4-1.6-0.8-2.5-1.3c38.8,0.8,76.7-13.6,106.2-39.8c-34.3,26.2-77.3,37.4-119.9,31.6
	c-28.8-19.8-52.4-51.6-66.1-90.4C41,81.7,37.4,37.7,46.3,0C25,67.8,38.5,154.2,98,206.7c-13.2-3.9-26.2-9.5-38.7-16.8
	C20.5,167,0,129.5,0,129.5c6.6,19.4,20.7,45.8,63.2,70.2c15.9,9.1,32.6,15.1,49.3,18.1c24.1,15.5,50.3,19.2,72.1,16.1
	c-6.5-0.4-12.9-1.3-19.2-2.7C156.4,229.6,147.4,226.4,138.3,221.5z"/>
</svg>
